<svg width="30" height="26" viewBox="0 0 30 26" fill="none" xmlns="http://www.w3.org/2000/svg">
<path d="M28.75 1.75C27.553 2.59434 26.2276 3.24013 24.825 3.6625C24.0722 2.79688 23.0717 2.18336 21.9588 1.9049C20.8459 1.62645 19.6744 1.69649 18.6026 2.10556C17.5308 2.51464 16.6106 3.243 15.9662 4.19214C15.3219 5.14129 14.9846 6.26542 15 7.4125V8.6625C12.8033 8.71946 10.6266 8.23226 8.66376 7.2443C6.70093 6.25635 5.0129 4.79829 3.75 3C3.75 3 -1.25 14.25 10 19.25C7.42566 20.9975 4.35895 21.8737 1.25 21.75C12.5 28 26.25 21.75 26.25 7.375C26.2488 7.02681 26.2154 6.67949 26.15 6.3375C27.4258 5.07936 28.326 3.49089 28.75 1.75V1.75Z" stroke="#F9F9F9" strokeWidth="2" strokeLinecap="round" strokeLinejoin="round"/>
</svg>
